<?xml version="1.0" encoding="UTF-8" standalone="no"?>
<!-- Created with Inkscape (http://www.inkscape.org/) -->

<svg
   xmlns:dc="http://purl.org/dc/elements/1.1/"
   xmlns:cc="http://creativecommons.org/ns#"
   xmlns:rdf="http://www.w3.org/1999/02/22-rdf-syntax-ns#"
   xmlns:svg="http://www.w3.org/2000/svg"
   xmlns="http://www.w3.org/2000/svg"
   xmlns:sodipodi="http://sodipodi.sourceforge.net/DTD/sodipodi-0.dtd"
   xmlns:inkscape="http://www.inkscape.org/namespaces/inkscape"
   width="159.69142"
   height="206.43748"
   id="svg5822"
   version="1.1"
   inkscape:version="0.48.2 r9819"
   sodipodi:docname="Hexagonal_latticeFRONT.svg"
   inkscape:export-filename="C:\Users\boris.averkiev\Desktop\Hexagonal_latticeFRONT.png"
   inkscape:export-xdpi="90"
   inkscape:export-ydpi="90">
  <defs
     id="defs5824" />
  <sodipodi:namedview
     id="base"
     pagecolor="#ffffff"
     bordercolor="#666666"
     borderopacity="1.0"
     inkscape:pageopacity="0.0"
     inkscape:pageshadow="2"
     inkscape:zoom="3.959798"
     inkscape:cx="137.21018"
     inkscape:cy="71.074123"
     inkscape:document-units="px"
     inkscape:current-layer="layer1"
     showgrid="false"
     showborder="true"
     fit-margin-top="2"
     fit-margin-right="2"
     fit-margin-bottom="2"
     fit-margin-left="0"
     inkscape:window-width="1920"
     inkscape:window-height="1018"
     inkscape:window-x="-8"
     inkscape:window-y="-8"
     inkscape:window-maximized="1"
     objecttolerance="10000">
    <inkscape:grid
       type="xygrid"
       id="grid6611"
       empspacing="5"
       visible="true"
       enabled="true"
       snapvisiblegridlinesonly="true" />
  </sodipodi:namedview>
  <metadata
     id="metadata5827">
    <rdf:RDF>
      <cc:Work
         rdf:about="">
        <dc:format>image/svg+xml</dc:format>
        <dc:type
           rdf:resource="http://purl.org/dc/dcmitype/StillImage" />
        <dc:title></dc:title>
      </cc:Work>
    </rdf:RDF>
  </metadata>
  <g
     inkscape:label="Layer 1"
     inkscape:groupmode="layer"
     id="layer1"
     transform="translate(341.70286,-162.83772)">
    <g
       id="g6613">
      <path
         inkscape:connector-curvature="0"
         id="path4676-5-7"
         d="m -303.07177,353.92594 87.60809,-49.45849"
         style="fill:none;stroke:#c0c0c0;stroke-width:0.75;stroke-linecap:butt;stroke-linejoin:miter;stroke-miterlimit:4;stroke-opacity:1;stroke-dasharray:none" />
      <path
         inkscape:connector-curvature="0"
         id="path4494-5-7-7-1"
         d="m -286.81168,304.11458 -44.11047,25.1549 27.65845,25.15489 72.00738,0.11922 43.99126,-25.27411 -27.77768,-25.27411 z"
         style="fill:none;stroke:#c0c0c0;stroke-width:0.75;stroke-linecap:butt;stroke-linejoin:miter;stroke-miterlimit:4;stroke-opacity:1;stroke-dasharray:none" />
      <rect
         inkscape:export-ydpi="90"
         inkscape:export-xdpi="90"
         inkscape:export-filename="C:\Users\boris.averkiev\Desktop\Boris\Symmetry\HexagonalR.png"
         y="187.1553"
         x="-287.10526"
         height="116.92113"
         width="71.870331"
         id="rect3970-3-5-8-1-6-6-9-2-5-9"
         style="fill:#000000;fill-opacity:0;fill-rule:evenodd;stroke:#c0c0c0;stroke-width:0.75;stroke-linejoin:round;stroke-miterlimit:4;stroke-opacity:1;stroke-dasharray:none" />
      <rect
         inkscape:export-ydpi="90"
         inkscape:export-xdpi="90"
         inkscape:export-filename="C:\Users\boris.averkiev\Desktop\Boris\Symmetry\HexagonalR.png"
         transform="matrix(0.73824792,0.67452947,0,1,0,0)"
         y="449.30716"
         x="-388.95496"
         height="116.85934"
         width="37.620148"
         id="rect3990-21-8-1-7-3-7-1-7-2-6"
         style="fill:#000000;fill-opacity:0;fill-rule:evenodd;stroke:#c0c0c0;stroke-width:0.87289125;stroke-linejoin:round;stroke-miterlimit:4;stroke-opacity:1;stroke-dasharray:none" />
      <rect
         inkscape:export-ydpi="90"
         inkscape:export-xdpi="90"
         inkscape:export-filename="C:\Users\boris.averkiev\Desktop\Boris\Symmetry\HexagonalR.png"
         y="212.47849"
         x="-259.40768"
         height="116.92113"
         width="71.870331"
         id="rect3970-3-5-8-1-6-6-9-2-6-7-4"
         style="fill:#000000;fill-opacity:0;fill-rule:evenodd;stroke:#c0c0c0;stroke-width:0.75;stroke-linejoin:round;stroke-miterlimit:4;stroke-opacity:1;stroke-dasharray:none" />
      <path
         inkscape:connector-curvature="0"
         id="path4782-0"
         d="m -259.62191,329.06061 27.49707,25.13667"
         style="fill:none;stroke:#787878;stroke-width:1.73457289;stroke-linecap:butt;stroke-linejoin:miter;stroke-miterlimit:4;stroke-opacity:1;stroke-dasharray:none" />
      <rect
         inkscape:export-ydpi="90"
         inkscape:export-xdpi="90"
         inkscape:export-filename="C:\Users\boris.averkiev\Desktop\Boris\Symmetry\HexagonalR.png"
         y="212.47849"
         x="-331.16013"
         height="116.92113"
         width="71.870331"
         id="rect3970-3-5-8-1-6-6-9-0-3-6"
         style="fill:#000000;fill-opacity:0;fill-rule:evenodd;stroke:#787878;stroke-width:1.75;stroke-linejoin:round;stroke-miterlimit:4;stroke-opacity:1;stroke-dasharray:none" />
      <path
         inkscape:connector-curvature="0"
         id="path4494-5-4-8"
         d="m -286.81168,187.22282 -44.11047,25.1549 27.65845,25.15489 72.00738,0.11922 43.99126,-25.27411 -27.77768,-25.27411 z"
         style="fill:none;stroke:#c0c0c0;stroke-width:0.75;stroke-linecap:butt;stroke-linejoin:miter;stroke-miterlimit:4;stroke-opacity:1;stroke-dasharray:none" />
      <path
         d="m -288.83488,190.22993 c -1.63194,-1.03411 -2.11714,-3.19786 -1.08303,-4.82981 1.03411,-1.63194 3.19786,-2.11714 4.82982,-1.08303 1.63194,1.03411 2.11714,3.19787 1.08303,4.82981 -1.03411,1.63194 -3.19788,2.11714 -4.82982,1.08303 z"
         style="fill:#c0c0c0;fill-opacity:1;fill-rule:evenodd;stroke:none;stroke-width:0.75;marker-start:none;marker-end:none"
         id="path3611-42-3-4-8"
         inkscape:connector-curvature="0" />
      <path
         d="m -284.29873,301.83266 c 1.22237,1.49614 1.00016,3.70247 -0.49599,4.92483 -1.49614,1.22236 -3.70248,1.00016 -4.92484,-0.49599 -1.22236,-1.49615 -1.00016,-3.70247 0.49599,-4.92483 1.49615,-1.22236 3.70248,-1.00016 4.92484,0.49599 z"
         style="fill:#c0c0c0;fill-opacity:1;fill-rule:evenodd;stroke:none;stroke-width:0.75;marker-start:none;marker-end:none"
         id="path6883-1-1-7-4"
         inkscape:connector-curvature="0" />
      <rect
         inkscape:export-ydpi="90"
         inkscape:export-xdpi="90"
         inkscape:export-filename="C:\Users\boris.averkiev\Desktop\Boris\Symmetry\HexagonalR.png"
         transform="matrix(0.73824792,0.67452947,0,1,0,0)"
         y="383.59375"
         x="-291.53369"
         height="116.85934"
         width="37.620148"
         id="rect3990-21-8-1-7-3-7-1-7-7-1-1"
         style="fill:#000000;fill-opacity:0;fill-rule:evenodd;stroke:#c0c0c0;stroke-width:0.87289125;stroke-linejoin:round;stroke-miterlimit:4;stroke-opacity:1;stroke-dasharray:none" />
      <path
         d="m -217.08242,190.22993 c -1.63194,-1.03411 -2.11714,-3.19786 -1.08303,-4.82981 1.03411,-1.63194 3.19786,-2.11714 4.82982,-1.08303 1.63194,1.03411 2.11714,3.19787 1.08303,4.82981 -1.03411,1.63194 -3.19788,2.11714 -4.82982,1.08303 z"
         style="fill:#c0c0c0;fill-opacity:1;fill-rule:evenodd;stroke:none;stroke-width:0.75;marker-start:none;marker-end:none"
         id="path3611-42-3-5-7-4"
         inkscape:connector-curvature="0" />
      <path
         d="m -212.54627,301.83266 c 1.22237,1.49614 1.00016,3.70247 -0.49599,4.92483 -1.49614,1.22236 -3.70248,1.00016 -4.92484,-0.49599 -1.22236,-1.49615 -1.00016,-3.70247 0.49599,-4.92483 1.49615,-1.22236 3.70248,-1.00016 4.92484,0.49599 z"
         style="fill:#c0c0c0;fill-opacity:1;fill-rule:evenodd;stroke:none;stroke-width:0.75;marker-start:none;marker-end:none"
         id="path6883-1-1-8-7-3"
         inkscape:connector-curvature="0" />
      <path
         d="m -233.49388,240.46955 c -1.63195,-1.03411 -2.11715,-3.19786 -1.08303,-4.82981 1.03411,-1.63194 3.19786,-2.11714 4.82981,-1.08303 1.63194,1.03411 2.11714,3.19787 1.08303,4.82981 -1.03411,1.63194 -3.19787,2.11714 -4.82981,1.08303 z"
         style="fill:#000000;fill-opacity:1;fill-rule:evenodd;stroke:none;stroke-width:0.75;marker-start:none;marker-end:none"
         id="path3611-5-4-5-8-9"
         inkscape:connector-curvature="0" />
      <path
         d="m -332.91476,215.55309 c -1.63194,-1.03411 -2.11715,-3.19786 -1.08303,-4.82981 1.03411,-1.63194 3.19786,-2.11714 4.82981,-1.08303 1.63194,1.03411 2.11714,3.19787 1.08303,4.82981 -1.03411,1.63194 -3.19787,2.11714 -4.82981,1.08303 z"
         style="fill:#000000;fill-opacity:1;fill-rule:evenodd;stroke:none;stroke-width:0.75;marker-start:none;marker-end:none"
         id="path3611-27-3-0-1-8"
         inkscape:connector-curvature="0" />
      <path
         d="m -233.54154,357.24313 c -1.63195,-1.03411 -2.11715,-3.19786 -1.08304,-4.82981 1.03412,-1.63194 3.19787,-2.11714 4.82982,-1.08303 1.63194,1.03411 2.11714,3.19787 1.08303,4.82981 -1.03411,1.63194 -3.19787,2.11714 -4.82981,1.08303 z"
         style="fill:#000000;fill-opacity:1;fill-rule:evenodd;stroke:none;stroke-width:0.75;marker-start:none;marker-end:none"
         id="path3611-1-2-0-2-8"
         inkscape:connector-curvature="0" />
      <path
         d="m -189.38484,215.55309 c -1.63194,-1.03411 -2.11714,-3.19786 -1.08303,-4.82981 1.03411,-1.63194 3.19786,-2.11714 4.82982,-1.08303 1.63194,1.03411 2.11714,3.19787 1.08303,4.82981 -1.03411,1.63194 -3.19788,2.11714 -4.82982,1.08303 z"
         style="fill:#c0c0c0;fill-opacity:1;fill-rule:evenodd;stroke:none;stroke-width:0.75;marker-start:none;marker-end:none"
         id="path3611-42-3-5-6-0-0"
         inkscape:connector-curvature="0" />
      <path
         d="m -184.84869,327.15583 c 1.22237,1.49614 1.00016,3.70247 -0.49599,4.92483 -1.49614,1.22236 -3.70248,1.00016 -4.92484,-0.49599 -1.22236,-1.49615 -1.00016,-3.70247 0.49599,-4.92483 1.49615,-1.22236 3.70248,-1.00016 4.92484,0.49599 z"
         style="fill:#c0c0c0;fill-opacity:1;fill-rule:evenodd;stroke:none;stroke-width:0.75;marker-start:none;marker-end:none"
         id="path6883-1-1-8-0-9-8"
         inkscape:connector-curvature="0" />
      <path
         inkscape:connector-curvature="0"
         id="path4676-7"
         d="m -303.07048,237.38954 87.36709,-49.9328"
         style="fill:none;stroke:#c0c0c0;stroke-width:0.75;stroke-linecap:butt;stroke-linejoin:miter;stroke-miterlimit:4;stroke-opacity:1;stroke-dasharray:none" />
      <rect
         inkscape:export-ydpi="90"
         inkscape:export-xdpi="90"
         inkscape:export-filename="C:\Users\boris.averkiev\Desktop\Boris\Symmetry\HexagonalR.png"
         transform="matrix(0.73824792,0.67452947,0,1,0,0)"
         y="514.7702"
         x="-448.46152"
         height="116.85934"
         width="37.620148"
         id="rect3990-21-8-1-7-3-7-1-7-4-5-1-8"
         style="fill:#000000;fill-opacity:0;fill-rule:evenodd;stroke:#000000;stroke-width:2.03674626;stroke-linejoin:round;stroke-miterlimit:4;stroke-opacity:1;stroke-dasharray:none" />
      <path
         d="m -332.96241,332.32667 c -1.63194,-1.03411 -2.11715,-3.19786 -1.08303,-4.82981 1.03411,-1.63194 3.19786,-2.11714 4.82981,-1.08303 1.63193,1.03411 2.11713,3.19787 1.08302,4.82981 -1.0341,1.63194 -3.19786,2.11714 -4.8298,1.08303 z"
         style="fill:#000000;fill-opacity:1;fill-rule:evenodd;stroke:none;stroke-width:0.75;marker-start:none;marker-end:none"
         id="path3611-3-3-6-6-3"
         inkscape:connector-curvature="0" />
      <path
         d="m -305.24507,357.24313 c -1.63194,-1.03411 -2.11714,-3.19786 -1.08303,-4.82981 1.03411,-1.63194 3.19786,-2.11714 4.82981,-1.08303 1.63194,1.03411 2.11714,3.19787 1.08303,4.82981 -1.03411,1.63194 -3.19787,2.11714 -4.82981,1.08303 z"
         style="fill:#000000;fill-opacity:1;fill-rule:evenodd;stroke:none;stroke-width:0.75;marker-start:none;marker-end:none"
         id="path3611-2-4-1-0-8"
         inkscape:connector-curvature="0" />
      <path
         d="m -305.19742,240.46955 c -1.63194,-1.03411 -2.11714,-3.19786 -1.08303,-4.82981 1.03411,-1.63194 3.19786,-2.11714 4.82981,-1.08303 1.63194,1.03411 2.11714,3.19787 1.08303,4.82981 -1.03411,1.63194 -3.19787,2.11714 -4.82981,1.08303 z"
         style="fill:#000000;fill-opacity:1;fill-rule:evenodd;stroke:none;stroke-width:0.75;marker-start:none;marker-end:none"
         id="path3611-6-1-9-8-3"
         inkscape:connector-curvature="0" />
      <path
         inkscape:export-ydpi="90"
         inkscape:export-xdpi="90"
         inkscape:export-filename="C:\Users\boris.averkiev\Desktop\Boris\Symmetry\HexagonalR.png"
         inkscape:connector-curvature="0"
         id="path4381-2-6-0-7"
         d="m -331.28242,212.4927 71.87031,0 27.7837,25.16613"
         style="fill:none;stroke:#000000;stroke-width:1.75;stroke-linecap:butt;stroke-linejoin:miter;stroke-miterlimit:4;stroke-opacity:1;stroke-dasharray:none" />
      <rect
         inkscape:export-ydpi="90"
         inkscape:export-xdpi="90"
         inkscape:export-filename="C:\Users\boris.averkiev\Desktop\Boris\Symmetry\HexagonalR.png"
         y="237.58266"
         x="-303.37643"
         height="116.92113"
         width="71.870331"
         id="rect3970-1-2-7-9-2-4-9-9-8-9-1"
         style="fill:#000000;fill-opacity:0;fill-rule:evenodd;stroke:#000000;stroke-width:1.75;stroke-linejoin:round;stroke-miterlimit:4;stroke-opacity:1;stroke-dasharray:none" />
      <path
         d="m -256.60114,327.15583 c 1.22237,1.49614 1.00016,3.70247 -0.49599,4.92483 -1.49614,1.22236 -3.70248,1.00016 -4.92484,-0.49599 -1.22236,-1.49615 -1.00016,-3.70247 0.49599,-4.92483 1.49615,-1.22236 3.70248,-1.00016 4.92484,0.49599 z"
         style="fill:#787878;fill-opacity:1;fill-rule:evenodd;stroke:none;stroke-width:0.75;marker-start:none;marker-end:none"
         id="path6883-1-1-3-3-0"
         inkscape:connector-curvature="0" />
      <path
         d="m -261.13729,215.55309 c -1.63194,-1.03411 -2.11714,-3.19786 -1.08303,-4.82981 1.03411,-1.63194 3.19786,-2.11714 4.82982,-1.08303 1.63194,1.03411 2.11714,3.19787 1.08303,4.82981 -1.03411,1.63194 -3.19788,2.11714 -4.82982,1.08303 z"
         style="fill:#000000;fill-opacity:1;fill-rule:evenodd;stroke:none;stroke-width:0.75;marker-start:none;marker-end:none"
         id="path3611-42-3-0-6-7"
         inkscape:connector-curvature="0" />
      <path
         id="text6159-1-0"
         d="m -334.95494,273.1733 c -0.0139,-0.5276 -0.0574,-0.90943 -0.13017,-1.14547 -0.0729,-0.23602 -0.19093,-0.41306 -0.35405,-0.53109 -0.16316,-0.11798 -0.39399,-0.17701 -0.6925,-0.17703 -0.70119,2e-5 -1.33119,0.27944 -1.89005,0.83829 -0.55886,0.55885 -1.01532,1.35029 -1.36937,2.37429 -0.35406,1.02398 -0.53109,2.00804 -0.53109,2.95221 0,0.70811 0.13885,1.23398 0.41654,1.57763 0.27769,0.34364 0.69423,0.51547 1.24962,0.51547 0.63174,0 1.17845,-0.11979 1.64011,-0.35928 0.46167,-0.23949 0.94935,-0.61611 1.46309,-1.12985 l 0.63523,0.63521 c -0.65259,0.72201 -1.31036,1.24963 -1.97335,1.58286 -0.663,0.33323 -1.37631,0.49986 -2.13997,0.49986 -1.00664,0 -1.77028,-0.29854 -2.29095,-0.89557 -0.52067,-0.59704 -0.78102,-1.46483 -0.78101,-2.60337 -1e-5,-0.74283 0.13885,-1.55854 0.41653,-2.44716 0.27769,-0.8886 0.68382,-1.66963 1.21838,-2.34304 0.53455,-0.67339 1.15937,-1.17671 1.87442,-1.50994 0.71505,-0.33323 1.47871,-0.49985 2.29096,-0.49985 0.92331,0 1.77376,0.10419 2.55129,0.3124 l -0.51025,2.35343 -1.09341,0 z"
         style="font-size:16.6307106px;font-style:normal;font-weight:normal;fill:#000000;fill-opacity:1;stroke:none;font-family:Bitstream Vera Sans"
         inkscape:connector-curvature="0" />
      <path
         id="text3663"
         style="font-size:21.6072998px;font-style:normal;font-weight:normal;fill:#008000;fill-opacity:1;stroke:none;font-family:Bitstream Vera Sans"
         d="m -287.79801,216.3069 c -0.68228,0.82294 -1.68105,2.17692 -2.99633,4.06192 -1.3153,1.88502 -2.54267,3.75597 -3.68211,5.61285 -0.23212,1.46299 -0.52753,2.84159 -0.88624,4.13578 l -1.57202,0 -0.30597,-0.49587 c 0.28135,-1.10429 0.78425,-2.32111 1.50872,-3.65046 0.0633,-1.32936 0.0949,-2.68685 0.0949,-4.07248 0,-1.17461 -0.0246,-2.08547 -0.0738,-2.73257 -0.0492,-0.64709 -0.12133,-1.13416 -0.21628,-1.46124 -0.095,-0.32705 -0.2075,-0.55213 -0.33762,-0.67523 -0.13012,-0.12308 -0.29014,-0.18462 -0.48004,-0.18463 -0.39389,1e-5 -0.84756,0.28487 -1.36101,0.85459 l -0.59083,-0.59083 c 0.33762,-0.30244 0.59962,-0.53103 0.78601,-0.68578 0.18639,-0.15473 0.37982,-0.29188 0.58028,-0.41147 0.20045,-0.11956 0.40795,-0.21275 0.62247,-0.27958 0.21453,-0.0668 0.45543,-0.10022 0.72271,-0.10023 0.68929,10e-6 1.1922,0.26377 1.50872,0.79128 0.3165,0.52753 0.47476,1.39619 0.47477,2.60597 -10e-6,1.4208 -0.0668,2.96116 -0.20046,4.6211 l 0.095,0 c 1.70917,-2.86972 3.12293,-5.48623 4.24129,-7.84954 l 2.20504,0 -0.13715,0.50642 z"
         inkscape:connector-curvature="0" />
      <path
         id="text3671"
         style="font-size:21.6072998px;font-style:normal;font-weight:normal;fill:#000000;fill-opacity:1;stroke:none;font-family:Bitstream Vera Sans"
         d="m -264.08634,357.53713 0.97064,-0.69633 0.67523,0.16881 -1.55092,6.68899 c -0.15475,0.6682 -0.23212,1.18868 -0.23211,1.56147 -10e-6,0.28134 0.0457,0.48532 0.13716,0.61192 0.0914,0.12661 0.23561,0.18991 0.43256,0.18991 0.211,0 0.43608,-0.0862 0.67523,-0.25849 0.23914,-0.17232 0.57675,-0.50114 1.01285,-0.98646 l 0.60137,0.59082 c -0.63303,0.67523 -1.17287,1.15528 -1.61949,1.44014 -0.44665,0.28486 -0.93021,0.42729 -1.45069,0.42729 -0.43609,0 -0.78426,-0.14419 -1.04449,-0.43257 -0.26026,-0.28837 -0.39038,-0.67171 -0.39037,-1.15 -10e-6,-0.38684 0.0809,-0.79831 0.24266,-1.2344 l -0.13716,-0.0422 c -0.67523,0.98471 -1.31529,1.70566 -1.92018,2.16284 -0.6049,0.45719 -1.24496,0.68578 -1.92018,0.68578 -0.77371,0 -1.37332,-0.29189 -1.79886,-0.87569 -0.42553,-0.58379 -0.6383,-1.4032 -0.6383,-2.45825 0,-1.20978 0.23738,-2.37209 0.71216,-3.48693 0.47476,-1.11482 1.12713,-1.99403 1.95711,-2.63761 0.82996,-0.64357 1.75488,-0.96536 2.77477,-0.96537 0.45718,10e-6 0.88447,0.051 1.28188,0.15298 0.39739,0.102 0.8071,0.28311 1.22913,0.54335 l 0,0 z m -0.92844,3.14404 c 0.0633,-0.28838 0.10549,-0.53807 0.1266,-0.74909 0.0211,-0.211 0.0316,-0.43959 0.0317,-0.68578 -1e-5,-0.54158 -0.11606,-0.93898 -0.34816,-1.1922 -0.23212,-0.2532 -0.626,-0.37981 -1.18165,-0.37981 -0.72448,0 -1.37509,0.2919 -1.95184,0.87568 -0.57676,0.5838 -1.02691,1.36629 -1.35046,2.34748 -0.32355,0.9812 -0.48532,1.96063 -0.48532,2.9383 0,0.7315 0.10023,1.27837 0.30069,1.6406 0.20045,0.36223 0.53631,0.54335 1.00757,0.54335 0.46421,0 0.91964,-0.20046 1.36628,-0.60138 0.44663,-0.40091 0.90734,-0.9724 1.38211,-1.71445 0.47477,-0.74204 0.81062,-1.59839 1.00757,-2.56903 l 0.095,-0.45367 z"
         inkscape:connector-curvature="0" />
      <path
         id="text3671-3"
         style="font-size:21.6072998px;font-style:normal;font-weight:normal;fill:#000000;fill-opacity:1;stroke:none;font-family:Bitstream Vera Sans"
         d="m -320.87205,343.42999 0.97064,-0.69633 0.67523,0.16881 -1.55092,6.68899 c -0.15475,0.6682 -0.23212,1.18868 -0.23211,1.56147 -1e-5,0.28134 0.0457,0.48532 0.13716,0.61192 0.0914,0.12661 0.23561,0.18991 0.43256,0.18991 0.211,0 0.43608,-0.0862 0.67523,-0.25849 0.23914,-0.17232 0.57675,-0.50114 1.01285,-0.98646 l 0.60137,0.59082 c -0.63303,0.67523 -1.17287,1.15528 -1.61949,1.44014 -0.44665,0.28486 -0.93021,0.42729 -1.45069,0.42729 -0.43609,0 -0.78426,-0.14419 -1.04449,-0.43257 -0.26026,-0.28837 -0.39038,-0.67171 -0.39037,-1.15 -10e-6,-0.38684 0.0809,-0.79831 0.24266,-1.2344 l -0.13716,-0.0422 c -0.67523,0.98471 -1.31529,1.70566 -1.92018,2.16284 -0.6049,0.45719 -1.24496,0.68578 -1.92018,0.68578 -0.77371,0 -1.37332,-0.29189 -1.79886,-0.87569 -0.42553,-0.58379 -0.6383,-1.4032 -0.6383,-2.45825 0,-1.20978 0.23738,-2.37209 0.71216,-3.48693 0.47476,-1.11482 1.12713,-1.99403 1.95711,-2.63761 0.82996,-0.64357 1.75488,-0.96536 2.77477,-0.96537 0.45718,1e-5 0.88447,0.051 1.28188,0.15298 0.39739,0.102 0.8071,0.28311 1.22913,0.54335 l 0,0 z m -0.92844,3.14404 c 0.0633,-0.28838 0.10549,-0.53807 0.1266,-0.74909 0.0211,-0.211 0.0316,-0.43959 0.0317,-0.68578 -10e-6,-0.54158 -0.11606,-0.93898 -0.34816,-1.1922 -0.23212,-0.2532 -0.626,-0.37981 -1.18165,-0.37981 -0.72448,0 -1.37509,0.2919 -1.95184,0.87568 -0.57676,0.5838 -1.02691,1.36629 -1.35046,2.34748 -0.32355,0.9812 -0.48532,1.96063 -0.48532,2.9383 0,0.7315 0.10023,1.27837 0.30069,1.6406 0.20045,0.36223 0.53631,0.54335 1.00757,0.54335 0.46421,0 0.91964,-0.20046 1.36628,-0.60138 0.44663,-0.40091 0.90734,-0.9724 1.38211,-1.71445 0.47477,-0.74204 0.81062,-1.59839 1.00757,-2.56903 l 0.095,-0.45367 z"
         inkscape:connector-curvature="0" />
      <text
         sodipodi:linespacing="125%"
         id="text6506"
         y="186.18213"
         x="-268.77371"
         style="font-size:40px;font-style:normal;font-weight:normal;line-height:125%;letter-spacing:0px;word-spacing:0px;fill:#000000;fill-opacity:1;stroke:none;font-family:Sans"
         xml:space="preserve"><tspan
           y="186.18213"
           x="-268.77371"
           id="tspan6508"
           sodipodi:role="line"> </tspan></text>
      <g
         id="g3071"
         transform="translate(-351.80734,137.9601)">
        <path
           id="path3648"
           style="font-size:21.60733986px;font-style:normal;font-weight:normal;fill:#000000;fill-opacity:1;stroke:none;font-family:Bitstream Vera Sans"
           d="m 44.744808,32.195188 c -0.68227,0.82295 -1.68105,2.17692 -2.99633,4.06193 -1.3153,1.88502 -2.54267,3.75596 -3.68211,5.61284 -0.23212,1.463 -0.52753,2.84159 -0.88624,4.13578 l -1.57202,0 -0.30596,-0.49587 c 0.28134,-1.10428 0.78425,-2.3211 1.50871,-3.65046 0.0633,-1.32935 0.09495,-2.68685 0.09496,-4.07247 -10e-6,-1.17462 -0.02462,-2.08547 -0.07386,-2.73257 -0.04923,-0.64709 -0.12133,-1.13417 -0.21628,-1.46124 -0.09496,-0.32706 -0.20749,-0.55213 -0.33761,-0.67523 -0.13013,-0.12308 -0.29014,-0.18463 -0.48005,-0.18463 -0.39389,0 -0.84755,0.28487 -1.36101,0.85458 l -0.59082,-0.59082 c 0.33761,-0.30244 0.59961,-0.53103 0.786,-0.68578 0.18639,-0.15473 0.37982,-0.29189 0.58028,-0.41147 0.20046,-0.11956 0.40795,-0.21276 0.62248,-0.27959 0.21452,-0.06681 0.45542,-0.10022 0.7227,-0.10023 0.6893,10e-6 1.1922,0.26377 1.50872,0.79129 0.31651,0.52753 0.47476,1.39618 0.47477,2.60596 -10e-6,1.4208 -0.06683,2.96117 -0.20046,4.6211 l 0.09495,0 c 1.70917,-2.86972 3.12293,-5.48623 4.24129,-7.84954 l 2.20505,0 z m 55.933932,1.31881 c -0.61192,10e-6 -1.15175,-0.13715 -1.61948,-0.41147 -0.46774,-0.2743 -0.82822,-0.65236 -1.08142,-1.13417 -0.25322,-0.4818 -0.37982,-1.02515 -0.37982,-1.63005 0,-0.59785 0.1354,-1.13768 0.40619,-1.61949 0.2708,-0.4818 0.64884,-0.85458 1.13418,-1.11835 0.48532,-0.26375 1.03394,-0.39563 1.64587,-0.39565 0.60489,2e-5 1.14472,0.13366 1.61948,0.40092 0.47477,0.26729 0.84403,0.64008 1.1078,1.11835 0.26376,0.4783 0.39564,1.01989 0.39564,1.62477 0,0.59787 -0.13892,1.1377 -0.41674,1.6195 -0.27783,0.48181 -0.66293,0.85987 -1.15527,1.13417 -0.49235,0.27432 -1.04449,0.41148 -1.65643,0.41147 z m 0.0633,-5.26468 c -0.39389,10e-6 -0.74556,0.08969 -1.05504,0.26904 -0.30948,0.17937 -0.54864,0.4273 -0.71743,0.7438 -0.16881,0.31653 -0.25321,0.67876 -0.25321,1.0867 0,0.40796 0.0826,0.77195 0.24793,1.09197 0.16529,0.32004 0.40444,0.56974 0.71744,0.74909 0.31299,0.17936 0.66643,0.26904 1.06032,0.26903 0.40091,1e-5 0.75787,-0.08967 1.07087,-0.26903 0.31298,-0.17935 0.55388,-0.42905 0.72269,-0.74909 0.16881,-0.32002 0.25321,-0.68401 0.25322,-1.09197 -1e-5,-0.40794 -0.0844,-0.77017 -0.25322,-1.0867 -0.16881,-0.3165 -0.40971,-0.56443 -0.72269,-0.7438 -0.313,-0.17935 -0.66996,-0.26903 -1.07088,-0.26904 z"
           inkscape:connector-curvature="0"
           sodipodi:nodetypes="cscccccccccscccccccccccccscccccscccccscccccccscccsc" />
        <path
           sodipodi:nodetypes="ccccc"
           style="font-size:21.60733986px;font-style:normal;font-weight:normal;fill:#000000;fill-opacity:1;stroke:none;font-family:Bitstream Vera Sans"
           d="m 49.287466,36.990665 12.99816,0 0,1.40322 -12.99816,0 z"
           id="path3616"
           inkscape:connector-curvature="0" />
        <path
           sodipodi:nodetypes="ccccc"
           style="font-size:21.60733986px;font-style:normal;font-weight:normal;fill:#000000;fill-opacity:1;stroke:none;font-family:Bitstream Vera Sans"
           d="m 62.285626,34.015445 -12.99816,0 0,-1.403219 12.99816,0 z"
           id="path3614"
           inkscape:connector-curvature="0" />
      </g>
      <text
         sodipodi:linespacing="50%"
         id="text6447"
         y="179.21272"
         x="-277.12753"
         style="font-size:20px;font-style:normal;font-variant:normal;font-weight:normal;font-stretch:normal;text-align:start;line-height:50%;letter-spacing:0px;word-spacing:0px;writing-mode:lr-tb;text-anchor:start;fill:#000000;fill-opacity:1;stroke:none;font-family:Sans;-inkscape-font-specification:Sans"
         xml:space="preserve"><tspan
           y="179.21272"
           x="-277.12753"
           id="tspan6552"
           sodipodi:role="line">2</tspan></text>
      <text
         sodipodi:linespacing="50%"
         id="text6447-2"
         y="179.21272"
         x="-286.54437"
         style="font-size:20px;font-style:normal;font-variant:normal;font-weight:normal;font-stretch:normal;text-align:start;line-height:50%;letter-spacing:0px;word-spacing:0px;writing-mode:lr-tb;text-anchor:start;fill:#000000;fill-opacity:1;stroke:none;font-family:Sans;-inkscape-font-specification:Sans"
         xml:space="preserve"><tspan
           y="179.21272"
           x="-286.54437"
           id="tspan6550"
           sodipodi:role="line">1</tspan></text>
      <path
         sodipodi:nodetypes="cc"
         id="path3679"
         style="fill:none;stroke:#008000;stroke-width:0.90500176px;stroke-linecap:butt;stroke-linejoin:miter;stroke-opacity:1"
         d="m -310.3294,230.08219 c 8.74424,-1.87897 16.13724,0.20365 16.05546,6.68904"
         inkscape:connector-curvature="0" />
      <text
         sodipodi:linespacing="50%"
         id="text6447-26"
         y="179.21272"
         x="-266.78006"
         style="font-size:20px;font-style:normal;font-variant:normal;font-weight:normal;font-stretch:normal;text-align:start;line-height:50%;letter-spacing:0px;word-spacing:0px;writing-mode:lr-tb;text-anchor:start;fill:#000000;fill-opacity:1;stroke:none;font-family:Sans;-inkscape-font-specification:Sans"
         xml:space="preserve"><tspan
           y="179.21272"
           x="-266.78006"
           id="tspan6609"
           sodipodi:role="line">0</tspan></text>
    </g>
  </g>
</svg>
