<?xml version="1.0" encoding="UTF-8" standalone="no"?>
<svg
   xmlns:dc="http://purl.org/dc/elements/1.1/"
   xmlns:cc="http://creativecommons.org/ns#"
   xmlns:rdf="http://www.w3.org/1999/02/22-rdf-syntax-ns#"
   xmlns:svg="http://www.w3.org/2000/svg"
   xmlns="http://www.w3.org/2000/svg"
   version="1.0"
   width="128.84"
   height="149"
   id="svg2379">
  <metadata
     id="metadata28">
    <rdf:RDF>
      <cc:Work
         rdf:about="">
        <dc:format>image/svg+xml</dc:format>
        <dc:type
           rdf:resource="http://purl.org/dc/dcmitype/StillImage" />
        <dc:title></dc:title>
      </cc:Work>
    </rdf:RDF>
  </metadata>
  <defs
     id="defs2381" />
  <g
     id="g3834"
     transform="translate(0,-20.24516)">
    <path
       d="m 30.887018,149.77222 c -1.03411,1.63194 -3.19786,2.11714 -4.82981,1.08303 -1.63194,-1.03411 -2.11714,-3.19786 -1.08303,-4.82981 1.03411,-1.63194 3.19787,-2.11714 4.82981,-1.08303 1.63194,1.03411 2.11714,3.19787 1.08303,4.82981 z"
       style="fill:#000000;fill-rule:evenodd;stroke:none;stroke-width:0.7pt;marker-start:none;marker-end:none"
       id="path3625" />
    <path
       d="m 87.298547,111.34523 c 1.22237,1.49614 1.00016,3.70247 -0.49599,4.92483 -1.49614,1.22236 -3.70247,1.00016 -4.92483,-0.49599 -1.22236,-1.49615 -1.00016,-3.70247 0.49599,-4.92483 1.49615,-1.22236 3.70247,-1.00016 4.92483,0.49599 z"
       style="fill:#c0c0c0;fill-opacity:1;fill-rule:evenodd;stroke:none;stroke-width:0.7pt;marker-start:none;marker-end:none"
       id="path3635" />
    <path
       d="m 101.18139,147.87377 0.0312,-0.28125 -0.125,-0.28125 -16.218753,-34.375 -0.25,-0.5 -0.53125,0 -71.872778,0 -0.71875,0 -0.15625,0.71875 1.59375,1.03125 70.591528,0 15.875,33.625 1.781253,0.0625 z"
       style="fill:#c0c0c0;fill-opacity:1;fill-rule:evenodd;stroke:none;stroke-width:1.75;stroke-linecap:butt;stroke-linejoin:miter;stroke-miterlimit:4;stroke-dasharray:none;stroke-opacity:1"
       id="path3637" />
    <path
       d="M 101.53774,29.289095 84.826867,112.84347"
       style="fill:none;fill-rule:evenodd;stroke:#c0c0c0;stroke-width:1.75;stroke-linecap:butt;stroke-linejoin:miter;stroke-miterlimit:4;stroke-dasharray:none;stroke-opacity:1"
       id="path3639" />
    <path
       d="m 54.251248,128.39012 c -0.87218,1.18166 -1.89909,2.63411 -3.08073,4.35734 -0.17585,1.34343 -0.26377,2.29297 -0.26377,2.84862 0,0.46423 0.05275,0.79657 0.15826,0.99702 0.1055,0.20046 0.28134,0.30069 0.52752,0.30069 0.19694,0 0.42025,-0.0826 0.66996,-0.24794 0.24968,-0.16528 0.51872,-0.42025 0.80711,-0.7649 l 0.61193,0.56972 c -0.59084,0.63303 -1.1043,1.06736 -1.54037,1.30298 -0.4361,0.23563 -0.88625,0.35344 -1.35046,0.35344 -0.93548,0 -1.40322,-0.68226 -1.40321,-2.04679 -10e-6,-0.30244 0.02109,-0.63654 0.0633,-1.00229 l -0.1055,0 c -0.72447,1.08318 -1.41025,1.86216 -2.05734,2.33693 -0.6471,0.47477 -1.33992,0.71215 -2.07844,0.71215 -0.51346,0 -0.94603,-0.1477 -1.29771,-0.44312 -0.35168,-0.29541 -0.61193,-0.68753 -0.78073,-1.17637 -0.16881,-0.48884 -0.25322,-1.02164 -0.25321,-1.5984 -1e-5,-1.25901 0.23914,-2.45297 0.71743,-3.58188 0.47828,-1.12889 1.14296,-2.01513 1.99403,-2.65871 0.85107,-0.64357 1.80764,-0.96536 2.86973,-0.96537 0.78776,1e-5 1.40496,0.24619 1.8516,0.73853 0.44663,0.49237 0.69457,1.21331 0.74381,2.16285 l 0.09496,-0.0105 1.38211,-2.72202 1.82522,0 -0.1055,0.53807 z m -4.58945,4.43119 c 0.11956,-0.73149 0.17935,-1.37858 0.17936,-1.94128 -1e-5,-0.80183 -0.11782,-1.39617 -0.35344,-1.78303 -0.23564,-0.38684 -0.60314,-0.58026 -1.10252,-0.58027 -0.64711,1e-5 -1.24848,0.28838 -1.80413,0.86513 -0.55567,0.57677 -1.00054,1.3575 -1.33464,2.34221 -0.3341,0.98471 -0.50115,1.99404 -0.50114,3.02798 -1e-5,0.7104 0.1055,1.23792 0.31651,1.58257 0.21101,0.34465 0.52752,0.51697 0.94954,0.51697 0.60489,0 1.22737,-0.3552 1.86743,-1.0656 0.64006,-0.71039 1.2344,-1.69862 1.78303,-2.96468 l 0,0 z"
       style="font-style:normal;font-weight:normal;font-size:21.60733986px;font-family:'Bitstream Vera Sans';fill:#008000;fill-opacity:1;stroke:none;stroke-width:1px;stroke-linecap:butt;stroke-linejoin:miter;stroke-opacity:1"
       id="text3655" />
    <path
       d="m 99.807978,111.96663 c 1.674002,0.59083 2.511002,1.69159 2.511012,3.30229 -1e-5,0.82997 -0.18464,1.60719 -0.5539,2.33165 -0.36927,0.72447 -0.91086,1.29947 -1.62477,1.725 -0.713922,0.42554 -1.535102,0.6383 -2.463532,0.6383 -0.59787,0 -1.12363,-0.0475 -1.5773,-0.14243 -0.45367,-0.0949 -0.92316,-0.25848 -1.40848,-0.49059 l -1.1289,5.00091 -1.71973,0 3.12294,-13.9477 c 0.28134,-1.25198 0.66116,-2.28944 1.13945,-3.11239 0.47828,-0.82292 1.07614,-1.45771 1.79358,-1.90436 0.71742,-0.44662 1.56146,-0.66993 2.532112,-0.66995 1.08317,2e-5 1.92017,0.24092 2.51101,0.72271 0.59081,0.48181 0.88622,1.16584 0.88624,2.05206 -2e-5,0.35873 -0.051,0.74734 -0.15299,1.16583 -0.102,0.41851 -0.30421,0.82998 -0.60665,1.2344 -0.30245,0.40444 -0.72271,0.77899 -1.26078,1.12362 -0.53808,0.34466 -1.19748,0.64007 -1.978212,0.88624 l -0.0211,0.0844 z m -1.76193,-0.46422 c 0.75963,-0.0563 1.44541,-0.27431 2.057342,-0.65413 0.61192,-0.37981 1.09197,-0.87744 1.44014,-1.49289 0.34816,-0.61543 0.52224,-1.2889 0.52225,-2.02042 -1e-5,-0.58377 -0.14596,-1.03041 -0.43784,-1.3399 -0.29191,-0.30947 -0.72624,-0.46421 -1.30299,-0.46422 -0.893282,1e-5 -1.638842,0.43082 -2.236692,1.29243 -0.59787,0.86163 -1.08671,2.16813 -1.46652,3.91949 l -1.42431,6.61514 c -0.03517,0.16178 -0.05276,0.29893 -0.05275,0.41147 -1e-5,0.18991 0.04395,0.35168 0.13188,0.48532 0.08792,0.13364 0.21804,0.26552 0.39037,0.39564 0.17232,0.13013 0.39563,0.24266 0.66995,0.33762 0.27431,0.0949 0.62247,0.14243 1.0445,0.14243 0.56971,0 1.08844,-0.17584 1.55619,-0.52752 0.46773,-0.35169 0.83523,-0.85107 1.102522,-1.49817 0.26727,-0.64709 0.40091,-1.38562 0.40092,-2.2156 -1e-5,-0.79479 -0.21981,-1.41727 -0.659412,-1.86743 -0.43961,-0.45014 -1.06736,-0.70687 -1.88325,-0.77018 l 0.1477,-0.74908 z"
       style="font-style:normal;font-weight:normal;font-size:21.60733986px;font-family:'Bitstream Vera Sans';fill:#008000;fill-opacity:1;stroke:none;stroke-width:1px;stroke-linecap:butt;stroke-linejoin:miter;stroke-opacity:1"
       id="text3659" />
    <path
       d="m 67.417288,42.19988 c -0.68228,0.82294 -1.68105,2.17692 -2.996332,4.06192 -1.3153,1.88502 -2.54267,3.75597 -3.68211,5.61285 -0.23212,1.46299 -0.52753,2.84159 -0.88624,4.13578 l -1.57202,0 -0.30597,-0.49587 c 0.28135,-1.10429 0.78425,-2.32111 1.50872,-3.65046 0.0633,-1.32936 0.09495,-2.68685 0.09495,-4.07248 0,-1.17461 -0.02462,-2.08547 -0.07385,-2.73257 -0.04924,-0.64709 -0.12133,-1.13416 -0.21628,-1.46124 -0.09496,-0.32705 -0.2075,-0.55213 -0.33762,-0.67523 -0.13012,-0.12308 -0.29014,-0.18462 -0.48004,-0.18463 -0.39389,1e-5 -0.84756,0.28487 -1.36101,0.85459 l -0.59083,-0.59083 c 0.33762,-0.30244 0.59962,-0.53103 0.78601,-0.68578 0.18639,-0.15473 0.37982,-0.29188 0.58028,-0.41147 0.20045,-0.11956 0.40795,-0.21275 0.62247,-0.27958 0.21453,-0.06681 0.45543,-0.10022 0.72271,-0.10023 0.68929,10e-6 1.1922,0.26377 1.50872,0.79128 0.3165,0.52753 0.47476,1.39619 0.47477,2.60597 -1e-5,1.4208 -0.06683,2.96116 -0.20046,4.6211 l 0.09495,0 c 1.70917,-2.86972 3.12293,-5.48623 4.24129,-7.84954 l 2.205042,0 -0.13715,0.50642 z"
       style="font-style:normal;font-weight:normal;font-size:21.60733986px;font-family:'Bitstream Vera Sans';fill:#008000;fill-opacity:1;stroke:none;stroke-width:1px;stroke-linecap:butt;stroke-linejoin:miter;stroke-opacity:1"
       id="text3663" />
    <path
       d="M 56.708034,64.811168 C 57.822096,59.638758 48.072922,50.59773 39.875089,53.376386"
       style="fill:none;fill-rule:evenodd;stroke:#008000;stroke-width:1px;stroke-linecap:butt;stroke-linejoin:miter;stroke-opacity:1"
       id="path3679" />
    <path
       d="m 31.093168,134.80633 c 6.2069,0.3183 15.75597,7.55968 14.32361,13.84615"
       style="fill:none;fill-rule:evenodd;stroke:#008000;stroke-width:1px;stroke-linecap:butt;stroke-linejoin:miter;stroke-opacity:1"
       id="path3681" />
    <path
       d="m 92.943568,130.50925 c 1.51194,-2.54642 7.320962,-4.37666 10.265262,-3.34218"
       style="fill:none;fill-rule:evenodd;stroke:#008000;stroke-width:1px;stroke-linecap:butt;stroke-linejoin:miter;stroke-opacity:1"
       id="path3683" />
    <path
       d="M 44.700598,65.814285 27.989728,149.36866"
       style="fill:none;fill-rule:evenodd;stroke:#000000;stroke-width:1.75;stroke-linecap:butt;stroke-linejoin:miter;stroke-miterlimit:4;stroke-dasharray:none;stroke-opacity:1"
       id="path3601" />
    <path
       d="m 12.169569,116.96466 c -1.91792,0.23278 -3.6634203,-1.13487 -3.8962103,-3.05279 -0.23278,-1.91793 1.13487,-3.66343 3.0528003,-3.89621 1.91792,-0.23278 3.66343,1.13487 3.89621,3.05279 0.232779,1.91793 -1.13487,3.66343 -3.0528,3.89621 z"
       style="fill:#000000;fill-rule:evenodd;stroke:none;stroke-width:0.7pt;marker-start:none;marker-end:none"
       id="path3623" />
    <path
       d="m 27.604528,30.791705 -16.718749,82.593755 -0.03125,0.28125 0.125,0.28125 16.218749,34.375 0.25,0.5 0.53125,0 71.872779,0 0.718753,0 0.15625,-0.71875 16.71874,-82.125005 -1.71875,-0.34375 -16.593743,81.437505 -70.591529,0 -15.874999,-33.625 16.656249,-82.312505 -1.71875,-0.34375 z"
       style="fill:#000000;fill-opacity:1;fill-rule:evenodd;stroke:none;stroke-width:1.75;stroke-linecap:butt;stroke-linejoin:miter;stroke-miterlimit:4;stroke-dasharray:none;stroke-opacity:1"
       id="path3599" />
    <path
       d="m 102.52285,145.76617 c 1.22237,1.49614 1.00016,3.70247 -0.49599,4.92483 -1.49614,1.22236 -3.702473,1.00016 -4.924833,-0.49599 -1.22236,-1.49615 -1.00016,-3.70247 0.49599,-4.92483 1.49615,-1.22236 3.702473,-1.00016 4.924833,0.49599 z"
       style="fill:#000000;fill-rule:evenodd;stroke:none;stroke-width:0.7pt;marker-start:none;marker-end:none"
       id="path3627" />
    <path
       d="m 27.073278,30.572955 0.59375,1.25 16.71875,34.375 0.25,0.5 0.53125,0 71.872772,0 1.40625,0 -0.59375,-1.25 -16.24999,-34.375 -0.21875,-0.5 -0.5625,0 -72.341532,0 -1.40625,0 z m 2.8125,1.75 70.404032,0 15.37499,32.625 -69.904022,0 -15.875,-32.625 z"
       style="fill:#000000;fill-opacity:1;fill-rule:evenodd;stroke:none;stroke-width:1.75;stroke-linecap:butt;stroke-linejoin:miter;stroke-miterlimit:4;stroke-dasharray:none;stroke-opacity:1"
       id="path2430" />
    <path
       d="m 103.71885,33.273545 c -1.03411,1.63194 -3.19786,2.11714 -4.829813,1.08303 -1.63194,-1.03411 -2.11714,-3.19786 -1.08303,-4.82981 1.03411,-1.63194 3.197873,-2.11714 4.829813,-1.08303 1.63194,1.03411 2.11714,3.19787 1.08303,4.82981 z"
       style="fill:#000000;fill-opacity:1;fill-rule:evenodd;stroke:none;stroke-width:0.7pt;marker-start:none;marker-end:none"
       id="path3609" />
    <path
       d="m 115.21905,68.711575 c -1.63194,-1.03411 -2.11714,-3.19786 -1.08303,-4.82981 1.03411,-1.63194 3.19786,-2.11714 4.82981,-1.08303 1.63194,1.03411 2.11714,3.19787 1.08303,4.82981 -1.03411,1.63194 -3.19787,2.11714 -4.82981,1.08303 z"
       style="fill:#000000;fill-opacity:1;fill-rule:evenodd;stroke:none;stroke-width:0.7pt;marker-start:none;marker-end:none"
       id="path3611" />
    <path
       d="m 42.270438,63.994755 c 1.02487,-1.63776 3.18585,-2.13517 4.82361,-1.11029 1.63776,1.02488 2.13517,3.18586 1.11029,4.82362 -1.02488,1.63775 -3.18586,2.13516 -4.82361,1.11029 -1.63776,-1.02488 -2.13517,-3.18586 -1.11029,-4.82362 z"
       style="fill:#000000;fill-opacity:1;fill-rule:evenodd;stroke:none;stroke-width:0.7pt;marker-start:none;marker-end:none"
       id="path3613" />
    <path
       d="m 30.286708,28.530015 c 1.63776,1.02487 2.13517,3.18585 1.11029,4.82361 -1.02488,1.63776 -3.18586,2.13517 -4.82362,1.11029 -1.63775,-1.02488 -2.13516,-3.18586 -1.11029,-4.82361 1.02488,-1.63776 3.18586,-2.13517 4.82362,-1.11029 z"
       style="fill:#000000;fill-opacity:1;fill-rule:evenodd;stroke:none;stroke-width:0.7pt;marker-start:none;marker-end:none"
       id="path3615" />
    <path
       id="text6151"
       d="m 13.730502,127.95675 0.74708,-0.53595 0.51971,0.12993 -1.1937,5.14837 c -0.11911,0.5143 -0.17866,0.91491 -0.17865,1.20183 -1e-5,0.21655 0.0352,0.37354 0.10556,0.47099 0.0704,0.0974 0.18135,0.14617 0.33294,0.14616 0.1624,1e-5 0.33564,-0.0663 0.51971,-0.19895 0.18406,-0.13263 0.44391,-0.38572 0.77956,-0.75926 l 0.46287,0.45475 c -0.48724,0.51971 -0.90273,0.88919 -1.24649,1.10844 -0.34377,0.21925 -0.71596,0.32888 -1.11656,0.32888 -0.33566,0 -0.60363,-0.11098 -0.80393,-0.33294 -0.20031,-0.22196 -0.30046,-0.517 -0.30046,-0.88513 0,-0.29775 0.0622,-0.61445 0.18677,-0.9501 l -0.10556,-0.0325 c -0.51972,0.75791 -1.01236,1.31281 -1.47793,1.6647 -0.46557,0.35188 -0.95821,0.52783 -1.4779204,0.52783 -0.5955,0 -1.05702,-0.22467 -1.38454,-0.674 -0.32753,-0.44933 -0.49129,-1.08002 -0.49129,-1.89207 0,-0.93114 0.18271,-1.82575 0.54813,-2.68381 0.36542,-0.85806 0.86754,-1.53476 1.50635,-2.03012 0.6388104,-0.49534 1.3507004,-0.74301 2.1356804,-0.74302 0.35188,1e-5 0.68076,0.0393 0.98664,0.11775 0.30586,0.0785 0.62121,0.2179 0.94603,0.4182 l 0,0 z m -0.7146,2.4199 c 0.0487,-0.22196 0.0812,-0.41414 0.0974,-0.57656 0.0162,-0.1624 0.0243,-0.33834 0.0244,-0.52783 -1e-5,-0.41684 -0.0893,-0.72271 -0.26798,-0.91761 -0.17865,-0.19488 -0.48182,-0.29233 -0.90949,-0.29233 -0.55761,0 -1.05837,0.22467 -1.50229,0.67399 -0.44392,0.44934 -0.7903904,1.05161 -1.0394104,1.80681 -0.24903,0.7552 -0.37355,1.50905 -0.37355,2.26155 0,0.56302 0.0772,0.98393 0.23144,1.26273 0.15428,0.2788 0.41278,0.4182 0.7755004,0.4182 0.3573,0 0.70783,-0.15429 1.0516,-0.46286 0.34376,-0.30858 0.69836,-0.74844 1.06378,-1.31958 0.36542,-0.57114 0.62392,-1.23025 0.77551,-1.97733 l 0.0731,-0.34918 z"
       style="font-style:normal;font-weight:normal;font-size:16.6307106px;font-family:'Bitstream Vera Sans';fill:#000000;fill-opacity:1;stroke:none;stroke-width:1px;stroke-linecap:butt;stroke-linejoin:miter;stroke-opacity:1" />
    <path
       id="text6155"
       d="m 60.643355,161.06234 -0.74708,0.52783 -0.51971,-0.12993 2.1032,-9.28169 c 0.12451,-0.55218 0.18677,-0.95279 0.18677,-1.20182 0,-0.22737 -0.069,-0.38707 -0.20707,-0.47911 -0.13805,-0.092 -0.38572,-0.14345 -0.74302,-0.15429 l 0.0975,-0.42227 2.05447,-0.0731 0.47099,0 -1.4292,5.68433 0.10557,0.0325 c 0.52512,-0.70377 1.01776,-1.21265 1.47792,-1.52665 0.46015,-0.31398 0.92031,-0.47098 1.38048,-0.47099 0.59008,1e-5 1.04889,0.22468 1.37642,0.674 0.32752,0.44934 0.49128,1.08274 0.49129,1.90019 -1e-5,0.89326 -0.18001,1.77162 -0.54002,2.63509 -0.36001,0.86348 -0.85942,1.5483 -1.49822,2.05448 -0.63881,0.50617 -1.35342,0.75926 -2.1438,0.75926 -0.72002,0 -1.35883,-0.17594 -1.91643,-0.52783 l 0,0 z m 0.7146,-2.42802 c -0.0812,0.37896 -0.12181,0.74709 -0.1218,1.10439 -10e-6,0.42768 0.0934,0.73625 0.28015,0.92573 0.18677,0.18948 0.4967,0.28422 0.9298,0.28422 0.22195,0 0.43308,-0.0365 0.63339,-0.10963 0.2003,-0.0731 0.40467,-0.19354 0.6131,-0.36136 0.20842,-0.16782 0.40601,-0.38843 0.59279,-0.66182 0.18677,-0.27339 0.35865,-0.61039 0.51565,-1.011 0.15699,-0.4006 0.2788,-0.82963 0.36542,-1.28709 0.0866,-0.45745 0.12992,-0.8946 0.12993,-1.31146 -1e-5,-0.56301 -0.0799,-0.98527 -0.23955,-1.26679 -0.15971,-0.2815 -0.41551,-0.42226 -0.76739,-0.42226 -0.25986,0 -0.51565,0.0826 -0.76738,0.24767 -0.25174,0.16512 -0.5319,0.43851 -0.84047,0.82017 -0.30858,0.38167 -0.56032,0.7728 -0.7552,1.17341 -0.1949,0.40061 -0.36001,0.9122 -0.49535,1.53476 l -0.0731,0.34106 z"
       style="font-style:normal;font-weight:normal;font-size:16.6307106px;font-family:'Bitstream Vera Sans';fill:#000000;fill-opacity:1;stroke:none;stroke-width:1px;stroke-linecap:butt;stroke-linejoin:miter;stroke-opacity:1" />
    <path
       id="text6159"
       d="m 117.12161,104.95435 c -0.0108,-0.41143 -0.0447,-0.70918 -0.10151,-0.89325 -0.0568,-0.18406 -0.14888,-0.32211 -0.27609,-0.41415 -0.12723,-0.092 -0.30723,-0.13804 -0.54001,-0.13804 -0.54679,0 -1.03807,0.2179 -1.47387,0.65369 -0.4358,0.43581 -0.79175,1.05296 -1.06784,1.85147 -0.2761,0.79852 -0.41415,1.5659 -0.41414,2.30215 0,0.55219 0.10827,0.96227 0.32482,1.23025 0.21654,0.26797 0.54136,0.40196 0.97445,0.40196 0.49264,0 0.91896,-0.0934 1.27897,-0.28016 0.36001,-0.18676 0.74031,-0.48045 1.14093,-0.88107 l 0.49535,0.49535 c -0.50889,0.56302 -1.02183,0.97446 -1.53883,1.23431 -0.51701,0.25986 -1.07326,0.38979 -1.66876,0.38979 -0.78498,0 -1.38048,-0.23279 -1.7865,-0.69836 -0.40602,-0.46558 -0.60903,-1.14228 -0.60903,-2.03012 0,-0.57925 0.10827,-1.21536 0.32482,-1.90831 0.21654,-0.69294 0.53324,-1.30197 0.95009,-1.8271 0.41685,-0.52512 0.90408,-0.9176 1.46168,-1.17747 0.55761,-0.25984 1.15311,-0.38977 1.78651,-0.38978 0.72,10e-6 1.38318,0.0812 1.98951,0.24361 l -0.3979,1.83523 -0.85265,0 z"
       style="font-style:normal;font-weight:normal;font-size:16.6307106px;font-family:'Bitstream Vera Sans';fill:#000000;fill-opacity:1;stroke:none;stroke-width:1px;stroke-linecap:butt;stroke-linejoin:miter;stroke-opacity:1" />
  </g>
</svg>
